<svg width="12" height="13" viewBox="0 0 12 13" fill="none" xmlns="http://www.w3.org/2000/svg">
    <path d="M6.01337 9.5C5.72696 9.49994 5.4523 9.39476 5.24981 9.2076L0.929809 5.21577C0.826658 5.12372 0.744381 5.0136 0.687779 4.89184C0.631178 4.77009 0.601385 4.63914 0.600138 4.50663C0.598892 4.37412 0.626218 4.24271 0.680521 4.12006C0.734825 3.99742 0.815018 3.886 0.916422 3.7923C1.01783 3.69859 1.13841 3.62449 1.27114 3.57432C1.40387 3.52414 1.54608 3.49889 1.68948 3.50004C1.83288 3.50119 1.9746 3.52872 2.10637 3.58102C2.23813 3.63332 2.3573 3.70935 2.45693 3.80466L6.01337 7.09093L9.56981 3.80466C9.7735 3.62288 10.0463 3.52229 10.3295 3.52456C10.6127 3.52684 10.8835 3.63179 11.0838 3.81682C11.284 4.00185 11.3976 4.25215 11.4001 4.51381C11.4025 4.77547 11.2937 5.02756 11.0969 5.21577L6.77693 9.2076C6.57444 9.39476 6.29978 9.49994 6.01337 9.5Z"
          fill="currentColor"/>
</svg>
