<svg width="12" height="13" viewBox="0 0 12 13" fill="none" xmlns="http://www.w3.org/2000/svg">
    <g clip-path="url(#clip0_2230_1364)">
        <path d="M6 12.5C4.81331 12.5 3.65328 12.1481 2.66658 11.4888C1.67989 10.8295 0.910851 9.89246 0.456725 8.7961C0.0025997 7.69975 -0.11622 6.49335 0.115291 5.32946C0.346802 4.16557 0.918247 3.09648 1.75736 2.25736C2.59648 1.41825 3.66557 0.846802 4.82946 0.615291C5.99335 0.38378 7.19975 0.5026 8.2961 0.956725C9.39246 1.41085 10.3295 2.17989 10.9888 3.16658C11.6481 4.15328 12 5.31331 12 6.5C11.9983 8.09076 11.3656 9.61587 10.2407 10.7407C9.11587 11.8656 7.59076 12.4983 6 12.5ZM6 1.7C5.05065 1.7 4.12262 1.98152 3.33326 2.50895C2.54391 3.03638 1.92868 3.78604 1.56538 4.66312C1.20208 5.54021 1.10702 6.50533 1.29223 7.43644C1.47744 8.36754 1.9346 9.22282 2.60589 9.89411C3.27718 10.5654 4.13246 11.0226 5.06357 11.2078C5.99468 11.393 6.9598 11.2979 7.83688 10.9346C8.71397 10.5713 9.46362 9.95609 9.99105 9.16674C10.5185 8.37738 10.8 7.44935 10.8 6.5C10.7986 5.2274 10.2924 4.00733 9.39254 3.10747C8.49267 2.2076 7.2726 1.70143 6 1.7Z"
              fill="currentColor"/>
        <path d="M6.8484 6.5L8.2242 5.1242C8.3335 5.01104 8.39397 4.85948 8.39261 4.70216C8.39124 4.54484 8.32814 4.39436 8.21689 4.28311C8.10565 4.17187 7.95516 4.10876 7.79784 4.1074C7.64052 4.10603 7.48896 4.16651 7.3758 4.2758L6 5.6516L4.6242 4.2758C4.51104 4.16651 4.35948 4.10603 4.20216 4.1074C4.04484 4.10876 3.89436 4.17187 3.78311 4.28311C3.67187 4.39436 3.60876 4.54484 3.6074 4.70216C3.60603 4.85948 3.66651 5.01104 3.7758 5.1242L5.1516 6.5L3.7758 7.8758C3.7185 7.93115 3.67279 7.99736 3.64134 8.07056C3.6099 8.14376 3.59334 8.22249 3.59265 8.30216C3.59196 8.38183 3.60714 8.46084 3.63731 8.53457C3.66748 8.60831 3.71203 8.6753 3.76837 8.73164C3.8247 8.78797 3.89169 8.83253 3.96543 8.86269C4.03917 8.89286 4.11818 8.90804 4.19784 8.90735C4.27751 8.90666 4.35624 8.89011 4.42944 8.85866C4.50265 8.82722 4.56885 8.78151 4.6242 8.7242L6 7.3484L7.3758 8.7242C7.48896 8.8335 7.64052 8.89397 7.79784 8.8926C7.95516 8.89124 8.10565 8.82814 8.21689 8.71689C8.32814 8.60565 8.39124 8.45516 8.39261 8.29784C8.39397 8.14052 8.3335 7.98896 8.2242 7.8758L6.8484 6.5Z"
              fill="currentColor"/>
    </g>
    <defs>
        <clipPath id="clip0_2230_1364">
            <rect width="12" height="12" fill="white" transform="translate(0 0.5)"/>
        </clipPath>
    </defs>
</svg>
