<svg width="16" height="16" viewBox="0 0 16 16" fill="none" xmlns="http://www.w3.org/2000/svg">
    <path d="M8.00602 9.60197C8.89016 9.60197 9.6069 8.88549 9.6069 8.00167C9.6069 7.11784 8.89016 6.40136 8.00602 6.40136C7.12188 6.40136 6.40514 7.11784 6.40514 8.00167C6.40514 8.88549 7.12188 9.60197 8.00602 9.60197Z"
          fill="currentColor"/>
    <path d="M14.2911 8.00167C16.1952 4.9594 16.544 2.24664 15.1536 0.855869C13.7239 -0.574091 10.959 -0.157419 8.00602 1.69721C5.05307 -0.156619 2.28893 -0.572491 0.858463 0.855869C-0.573608 2.28743 -0.153587 5.05777 1.70891 8.01526C0.973669 9.1933 0.442443 10.3561 0.18723 11.4022C-0.310395 13.4448 0.277635 14.566 0.858463 15.1467C1.43129 15.7193 2.22573 16 3.17538 16C4.53545 16 6.21313 15.417 8.00602 14.2941C9.79811 15.4146 11.4782 15.9968 12.8383 15.9968C13.7879 15.9968 14.5831 15.7169 15.1536 15.1467C16.5448 13.7567 16.196 11.0439 14.2911 8.00167ZM1.99052 14.0158C1.43609 13.4608 1.5977 12.3787 1.74251 11.7813C1.91692 11.0655 2.25213 10.2714 2.71376 9.44682C3.24498 10.1322 3.84261 10.8184 4.51544 11.491C4.67145 11.6469 4.87626 11.7253 5.08107 11.7253C5.28588 11.7253 5.49069 11.6469 5.6467 11.491C5.95952 11.1783 5.95952 10.672 5.6467 10.3593C3.96582 8.67906 2.68175 6.82203 2.03052 5.12895C1.47689 3.6894 1.46169 2.51536 1.99052 1.98672C2.69375 1.28454 4.47304 1.55565 6.55475 2.7137C5.86991 3.24553 5.18588 3.84055 4.51464 4.51154C4.20183 4.82425 4.20183 5.33049 4.51464 5.64319C4.82746 5.9559 5.33389 5.9559 5.6467 5.64319C6.42594 4.86423 7.22358 4.19964 8.00602 3.64061C8.78846 4.19884 9.5861 4.86423 10.3653 5.64319C10.6782 5.9559 11.1846 5.9559 11.4974 5.64319C11.8102 5.33049 11.8102 4.82425 11.4974 4.51154C10.8262 3.84055 10.1413 3.24473 9.45729 2.7145C11.539 1.55565 13.3191 1.28454 14.0223 1.98752C14.8672 2.83286 14.3191 5.12335 12.6894 7.557C12.6886 7.5586 12.6862 7.561 12.6862 7.561L12.6846 7.5634C12.3926 7.99767 12.0678 8.43593 11.7174 8.8662C11.3006 9.37804 10.8462 9.88109 10.3661 10.3601C9.95411 10.7712 9.52609 11.1639 9.09407 11.5278C8.59805 11.9445 8.09242 12.3259 7.5908 12.6626C5.14268 14.3093 2.84096 14.8644 1.99052 14.0158ZM14.0223 14.0158C13.2967 14.742 11.4886 14.4333 9.44609 13.292C9.6725 13.1177 9.89971 12.9401 10.1229 12.753C10.5901 12.3603 11.0526 11.9357 11.4974 11.4918C12.015 10.9743 12.507 10.4313 12.9583 9.87709C13.0751 9.73313 13.1847 9.58758 13.2967 9.44202C14.4391 11.4838 14.7504 13.2872 14.0223 14.0158Z"
          fill="currentColor"/>
</svg>
