<svg width="16" height="16" viewBox="0 0 16 16" fill="none" xmlns="http://www.w3.org/2000/svg">
    <path d="M15.9971 8.21699C16.0387 6.66662 15.626 5.21064 14.8908 3.96267C15.0876 3.64827 15.1972 3.28668 15.1972 2.90669C15.1972 2.3723 14.9892 1.87071 14.6116 1.49231L14.51 1.39072C13.8629 0.742728 12.8069 0.656329 12.043 1.11552C10.9158 0.448333 9.61431 0.0427409 8.21439 0.00434164C6.65768 -0.0292577 5.20256 0.384334 3.95704 1.11632C3.19228 0.656329 2.13794 0.743528 1.48998 1.39072L1.38839 1.49231C0.718827 2.1619 0.628432 3.19068 1.1092 3.96267C0.444443 5.08825 0.0404668 6.38742 0.00286896 7.7882C-0.0387286 9.33857 0.374047 10.7945 1.1092 12.0425C0.912416 12.3569 0.802822 12.7185 0.802822 13.0985C0.802822 13.6329 1.01081 14.1345 1.38839 14.5129L1.48998 14.6145C1.86836 14.9929 2.36993 15.2001 2.9043 15.2001C3.28588 15.2001 3.64826 15.0897 3.96264 14.8921C5.08897 15.5577 6.38809 15.9624 7.78641 16C7.85841 16.0016 7.93041 16.0024 8.0024 16.0024C9.47191 16.0024 10.8486 15.5928 12.0374 14.8921C12.3517 15.0897 12.7141 15.2001 13.0957 15.2001C13.6301 15.2001 14.1316 14.9921 14.51 14.6145L14.6116 14.5129C15.282 13.8425 15.3724 12.8121 14.8892 12.0401C15.5548 10.9137 15.9595 9.61536 15.9971 8.21699ZM12.8141 2.52109C12.9157 2.4195 13.0341 2.4043 13.0965 2.4043C13.1589 2.4043 13.2773 2.4195 13.3797 2.52109L13.4813 2.62269C13.6365 2.77869 13.6365 3.03228 13.4813 3.18828L11.139 5.53064C11.1134 5.49864 11.0782 5.47544 11.0518 5.44424C10.8942 5.25624 10.7198 5.08505 10.5303 4.92825C10.5079 4.90985 10.4911 4.88505 10.4679 4.86665L12.8141 2.52109ZM7.9984 1.60271C8.0552 1.60271 8.11359 1.60351 8.17119 1.60511C9.11994 1.63071 10.0111 1.86751 10.8102 2.2627L8.95194 4.12106C8.67996 4.05467 8.39838 4.01147 8.10719 4.00347C7.74482 3.99627 7.39844 4.05227 7.06246 4.13466L5.18897 2.2611C6.03932 1.84271 6.99206 1.60271 7.9984 1.60271ZM10.3991 8.06659C10.3911 8.35138 10.3247 8.62018 10.2263 8.87218C10.2255 8.87377 10.2239 8.87698 10.2239 8.87698C9.97748 9.49856 9.48951 9.99375 8.88235 10.2329C8.87275 10.2369 8.86555 10.2433 8.85675 10.2473C8.57037 10.3569 8.25998 10.4137 7.9368 10.4009C7.65282 10.3937 7.38564 10.3281 7.13525 10.2297C7.13205 10.2281 7.12965 10.2257 7.12645 10.2249C6.67128 10.045 6.2873 9.73296 6.01852 9.34257C6.01052 9.33137 6.00092 9.32177 5.99292 9.30977C5.90812 9.18177 5.83693 9.04417 5.77933 8.90097C5.65854 8.60338 5.59294 8.27859 5.60254 7.93699C5.61054 7.6546 5.67454 7.3882 5.77133 7.13861C5.77293 7.13381 5.77613 7.13061 5.77853 7.12581C6.02252 6.50902 6.50569 6.01863 7.10645 5.77623C7.38244 5.66584 7.68402 5.60264 8 5.60264C8.0208 5.60264 8.0432 5.60264 8.064 5.60344C8.34798 5.61064 8.61516 5.67623 8.86555 5.77383C8.86875 5.77543 8.87115 5.77783 8.87515 5.77863C9.32952 5.95863 9.7135 6.26982 9.98228 6.66022C9.99028 6.67222 10.0007 6.68182 10.0087 6.69382C10.0943 6.82261 10.1663 6.96101 10.2239 7.10581C10.3439 7.4026 10.4079 7.7266 10.3991 8.06659ZM2.51952 2.62349L2.62112 2.52189C2.72351 2.4195 2.8427 2.4051 2.9043 2.4051C2.9659 2.4051 3.08509 2.4203 3.18748 2.52189L5.52815 4.86345C5.48975 4.89385 5.46255 4.93545 5.42575 4.96665C5.25056 5.11545 5.09137 5.27864 4.94338 5.45464C4.92018 5.48344 4.88818 5.50424 4.86498 5.53384L2.51952 3.18908C2.41713 3.08668 2.40273 2.96829 2.40273 2.90669C2.40273 2.84509 2.41713 2.72589 2.51952 2.62349ZM1.60277 7.83139C1.62837 6.88261 1.86516 5.99063 2.25954 5.19144L4.11863 7.05061C4.05223 7.3226 4.00903 7.6042 4.00103 7.89539C3.99144 8.25859 4.04663 8.60658 4.12903 8.94337L2.26274 10.8097C1.82036 9.91136 1.57398 8.90097 1.60277 7.83139ZM3.18588 13.4841C3.08429 13.5857 2.9659 13.6009 2.9035 13.6009C2.8411 13.6009 2.72271 13.5857 2.62032 13.4841L2.51872 13.3825C2.36353 13.2265 2.36353 12.9729 2.51872 12.8169L4.86018 10.4753C4.88578 10.5073 4.92098 10.5305 4.94738 10.5617C5.10497 10.7497 5.27936 10.9209 5.46895 11.0777C5.49135 11.0961 5.50815 11.1209 5.53134 11.1393L3.18588 13.4841ZM7.82881 14.4001C6.88007 14.3745 5.98892 14.1377 5.18977 13.7425L7.04806 11.8841C7.32004 11.9505 7.60162 11.9937 7.89281 12.0017C7.92881 12.0025 7.9648 12.0025 8.0008 12.0025C8.32718 12.0025 8.63996 11.9513 8.94475 11.8769L10.8198 13.7521C9.92069 14.1945 8.90715 14.4369 7.82881 14.4001ZM13.4805 13.3817L13.3789 13.4833C13.2765 13.5857 13.1581 13.6001 13.0957 13.6001C13.0333 13.6001 12.9149 13.5849 12.8125 13.4833L10.4711 11.1417C10.5055 11.1145 10.5303 11.0769 10.5639 11.0481C10.7478 10.8929 10.9158 10.7225 11.0694 10.5369C11.0886 10.5129 11.115 10.4953 11.1342 10.4713L13.4797 12.8161C13.5821 12.9185 13.5965 13.0369 13.5965 13.0993C13.5965 13.1617 13.5829 13.2793 13.4805 13.3817ZM13.7445 10.8169L11.8814 8.95377C11.9478 8.68178 11.9918 8.40098 11.9998 8.11059V8.10979C12.0094 7.7466 11.9542 7.3986 11.8718 7.06181L13.7381 5.19544C14.1812 6.09383 14.4276 7.10421 14.3988 8.17379C14.3716 9.12177 14.1364 10.0154 13.7445 10.8169Z"
          fill="currentColor"/>
</svg>
