<svg width="16" height="16" viewBox="0 0 16 16" fill="none" xmlns="http://www.w3.org/2000/svg">
    <path d="M13.4735 9.60145C13.6566 9.6015 13.8348 9.54483 13.981 9.44003C14.1272 9.33523 14.2334 9.18802 14.2836 9.02071L15.9678 3.42129C16.0035 3.30225 16.0096 3.17696 15.9857 3.05528C15.9618 2.9336 15.9085 2.81886 15.8299 2.72008C15.7514 2.6213 15.6498 2.54117 15.5332 2.48601C15.4165 2.43085 15.288 2.40216 15.1577 2.40219H13.4735C13.2502 2.40219 13.036 2.48647 12.878 2.63648C12.7201 2.7865 12.6314 2.98996 12.6314 3.20211C12.6314 3.41426 12.7201 3.61772 12.878 3.76774C13.036 3.91775 13.2502 4.00203 13.4735 4.00203H14.0411L12.8386 8.00162H5.6875L4.48499 4.00203H5.05256C5.2759 4.00203 5.49009 3.91775 5.64801 3.76774C5.80593 3.61772 5.89465 3.41426 5.89465 3.20211C5.89465 2.98996 5.80593 2.7865 5.64801 2.63648C5.49009 2.48647 5.2759 2.40219 5.05256 2.40219H4.01679L3.51574 0.59838C3.46832 0.427581 3.36272 0.276494 3.21542 0.168691C3.06811 0.0608874 2.88739 0.002431 2.70144 0.00244141H0.842093C0.618756 0.00244141 0.404566 0.0867182 0.246643 0.236732C0.0887203 0.386745 0 0.590208 0 0.802359C0 1.01451 0.0887203 1.21797 0.246643 1.36799C0.404566 1.518 0.618756 1.60228 0.842093 1.60228H2.05218L2.55744 3.40609V3.42129L4.24162 9.02071L4.86983 11.4093C4.45406 11.5845 4.09583 11.8632 3.83296 12.2158C3.57008 12.5685 3.41231 12.982 3.3763 13.4127C3.34029 13.8435 3.42738 14.2754 3.62837 14.6631C3.82936 15.0507 4.1368 15.3796 4.51823 15.615C4.89966 15.8504 5.34093 15.9836 5.79545 16.0006C6.24997 16.0176 6.70088 15.9176 7.10059 15.7114C7.50029 15.5051 7.83395 15.2002 8.06634 14.8287C8.29874 14.4573 8.42125 14.0331 8.42093 13.601C8.41814 13.3279 8.36572 13.0573 8.26599 12.8011H10.2601C10.1603 13.0573 10.1079 13.3279 10.1051 13.601C10.1051 14.0757 10.2533 14.5396 10.5309 14.9343C10.8085 15.3289 11.203 15.6365 11.6646 15.8181C12.1263 15.9998 12.6342 16.0473 13.1243 15.9547C13.6143 15.8621 14.0644 15.6335 14.4177 15.2979C14.7711 14.9623 15.0117 14.5347 15.1091 14.0692C15.2066 13.6037 15.1566 13.1212 14.9654 12.6827C14.7742 12.2442 14.4504 11.8694 14.0349 11.6057C13.6195 11.342 13.1311 11.2013 12.6314 11.2013H6.55149L6.13044 9.60145H13.4735ZM6.73675 13.601C6.73675 13.7592 6.68736 13.9139 6.59483 14.0455C6.5023 14.177 6.37078 14.2795 6.21691 14.3401C6.06304 14.4006 5.89372 14.4165 5.73037 14.3856C5.56702 14.3547 5.41697 14.2785 5.2992 14.1667C5.18143 14.0548 5.10123 13.9123 5.06874 13.7571C5.03625 13.6019 5.05292 13.4411 5.11666 13.2949C5.1804 13.1488 5.28833 13.0238 5.42681 12.9359C5.56529 12.848 5.7281 12.8011 5.89465 12.8011C6.11799 12.8011 6.33218 12.8854 6.4901 13.0354C6.64803 13.1854 6.73675 13.3889 6.73675 13.601ZM12.6314 14.401C12.4648 14.401 12.302 14.354 12.1636 14.2661C12.0251 14.1783 11.9171 14.0533 11.8534 13.9072C11.7897 13.761 11.773 13.6002 11.8055 13.445C11.838 13.2898 11.9182 13.1473 12.0359 13.0354C12.1537 12.9235 12.3038 12.8474 12.4671 12.8165C12.6305 12.7856 12.7998 12.8015 12.9537 12.862C13.1075 12.9226 13.239 13.0251 13.3316 13.1566C13.4241 13.2882 13.4735 13.4428 13.4735 13.601C13.4735 13.8132 13.3848 14.0167 13.2268 14.1667C13.0689 14.3167 12.8547 14.401 12.6314 14.401Z"
          fill="currentColor"/>
    <path d="M7.57884 5.60186H8.42093V6.40178C8.42093 6.61393 8.50965 6.8174 8.66758 6.96741C8.8255 7.11742 9.03969 7.2017 9.26303 7.2017C9.48636 7.2017 9.70055 7.11742 9.85848 6.96741C10.0164 6.8174 10.1051 6.61393 10.1051 6.40178V5.60186H10.9472C11.1705 5.60186 11.3847 5.51759 11.5427 5.36757C11.7006 5.21756 11.7893 5.0141 11.7893 4.80195C11.7893 4.5898 11.7006 4.38633 11.5427 4.23632C11.3847 4.08631 11.1705 4.00203 10.9472 4.00203H10.1051V3.20211C10.1051 2.98996 10.0164 2.7865 9.85848 2.63648C9.70055 2.48647 9.48636 2.40219 9.26303 2.40219C9.03969 2.40219 8.8255 2.48647 8.66758 2.63648C8.50965 2.7865 8.42093 2.98996 8.42093 3.20211V4.00203H7.57884C7.3555 4.00203 7.14131 4.08631 6.98339 4.23632C6.82547 4.38633 6.73675 4.5898 6.73675 4.80195C6.73675 5.0141 6.82547 5.21756 6.98339 5.36757C7.14131 5.51759 7.3555 5.60186 7.57884 5.60186Z"
          fill="currentColor"/>
</svg>
