<svg width="16" height="16" viewBox="0 0 16 16" fill="none" xmlns="http://www.w3.org/2000/svg">
    <path d="M15.0587 15.3359H0.94117C0.691556 15.3359 0.452166 15.2328 0.275662 15.0495C0.0991588 14.8661 0 14.6174 0 14.3581V1.64697C0 1.38764 0.0991588 1.13894 0.275662 0.955574C0.452166 0.772205 0.691556 0.669189 0.94117 0.669189C1.19078 0.669189 1.43017 0.772205 1.60668 0.955574C1.78318 1.13894 1.88234 1.38764 1.88234 1.64697V13.3803H15.0587C15.3083 13.3803 15.5477 13.4833 15.7242 13.6667C15.9007 13.8501 15.9999 14.0988 15.9999 14.3581C15.9999 14.6174 15.9007 14.8661 15.7242 15.0495C15.5477 15.2328 15.3083 15.3359 15.0587 15.3359Z"
          fill="currentColor"/>
    <path d="M3.76468 12.4025C3.58989 12.4025 3.41856 12.352 3.26988 12.2565C3.12119 12.161 3.00104 12.0244 2.92287 11.862C2.8447 11.6996 2.81161 11.5178 2.82731 11.3369C2.84301 11.1561 2.90687 10.9833 3.01174 10.8381L5.83525 6.92697C5.97961 6.72695 6.19224 6.59197 6.42942 6.54978C6.66661 6.50759 6.91035 6.56139 7.11054 6.70012L9.1124 8.08661L11.4286 4.07772C11.4942 3.96433 11.5812 3.86594 11.6845 3.78851C11.7877 3.71107 11.905 3.65621 12.0292 3.62723C12.1535 3.59826 12.2821 3.59577 12.4073 3.61993C12.5324 3.64408 12.6516 3.69438 12.7576 3.76777L15.5811 5.72332C15.6839 5.79459 15.7722 5.8862 15.841 5.99292C15.9097 6.09964 15.9576 6.21939 15.9818 6.34532C16.006 6.47125 16.0061 6.6009 15.9821 6.72688C15.958 6.85285 15.9104 6.97267 15.8418 7.0795C15.7732 7.18633 15.685 7.27808 15.5823 7.34951C15.4795 7.42094 15.3643 7.47065 15.2431 7.4958C15.1218 7.52095 14.997 7.52105 14.8758 7.49609C14.7545 7.47113 14.6392 7.42161 14.5364 7.35035L12.5345 5.96386L10.2183 9.97275C10.1527 10.0861 10.0657 10.1845 9.96243 10.262C9.8592 10.3394 9.74191 10.3943 9.61767 10.4232C9.49344 10.4522 9.36483 10.4547 9.23964 10.4305C9.11445 10.4064 8.99528 10.3561 8.88935 10.2827L6.80654 8.8395L4.51761 12.0114C4.42995 12.1328 4.31627 12.2314 4.18558 12.2993C4.0549 12.3672 3.91079 12.4025 3.76468 12.4025Z"
          fill="currentColor"/>
</svg>
