<svg width="16" height="16" viewBox="0 0 16 16" fill="none" xmlns="http://www.w3.org/2000/svg">
    <path d="M13.6007 8.81743C13.159 8.81743 12.8006 9.18246 12.8006 9.63223V11.2618H2.73054L3.76507 10.2083C4.07791 9.88971 4.07791 9.37475 3.76507 9.05617C3.45223 8.73758 2.94657 8.73758 2.63373 9.05617L0.233429 11.5006C0.15982 11.5755 0.101413 11.666 0.0606076 11.7654C-0.0202025 11.965 -0.0202025 12.1891 0.0606076 12.3879C0.101413 12.4873 0.15982 12.5777 0.233429 12.6527L2.63373 15.0971C2.78975 15.256 2.99457 15.3359 3.1994 15.3359C3.40423 15.3359 3.60905 15.256 3.76507 15.0971C4.07791 14.7785 4.07791 14.2636 3.76507 13.945L2.73054 12.8914H13.6007C14.0424 12.8914 14.4008 12.5264 14.4008 12.0766V9.63223C14.4008 9.18246 14.0424 8.81743 13.6007 8.81743Z"
          fill="currentColor"/>
    <path d="M15.9394 3.61735C15.8986 3.51795 15.8402 3.4275 15.7666 3.35254L13.3663 0.908131C13.0534 0.589542 12.5478 0.589542 12.2349 0.908131C11.9221 1.22672 11.9221 1.74167 12.2349 2.06026L13.2695 3.1138H2.3993C1.95764 3.1138 1.5992 3.47884 1.5992 3.92861V6.37302C1.5992 6.82279 1.95764 7.18782 2.3993 7.18782C2.84096 7.18782 3.1994 6.82279 3.1994 6.37302V4.74341H13.2695L12.2349 5.79695C11.9221 6.11554 11.9221 6.6305 12.2349 6.94908C12.3909 7.10797 12.5958 7.18782 12.8006 7.18782C13.0054 7.18782 13.2103 7.10797 13.3663 6.94908L15.7666 4.50467C15.8402 4.42971 15.8986 4.33927 15.9394 4.23986C16.0202 4.04105 16.0202 3.81616 15.9394 3.61735Z"
          fill="currentColor"/>
</svg>
