<svg width="16" height="16" viewBox="0 0 16 16" fill="none" xmlns="http://www.w3.org/2000/svg">
    <path d="M15.1832 8.71769C15.1848 8.68811 15.1848 8.65847 15.1832 8.62889L13.5832 1.42889C13.5437 1.25084 13.4444 1.09166 13.302 0.977733C13.1595 0.863807 12.9824 0.801978 12.8 0.802493H3.20005C3.01792 0.802343 2.8412 0.864338 2.69908 0.978235C2.55697 1.09213 2.45797 1.25111 2.41845 1.42889L0.818449 8.62889C0.816857 8.65847 0.816857 8.68811 0.818449 8.71769C0.810616 8.74556 0.804472 8.77388 0.800049 8.80249V13.6025C0.800049 14.0268 0.96862 14.4338 1.26868 14.7339C1.56874 15.0339 1.9757 15.2025 2.40005 15.2025H13.6C14.0244 15.2025 14.4314 15.0339 14.7314 14.7339C15.0315 14.4338 15.2 14.0268 15.2 13.6025V8.80249C15.1962 8.77391 15.1905 8.7456 15.1832 8.71769ZM3.84005 2.40249H12.16L13.404 8.00249H11.6496C11.3391 8.00343 11.0356 8.09469 10.7761 8.26515C10.5166 8.43562 10.3122 8.67791 10.188 8.96249C10.0045 9.39081 9.69937 9.75586 9.31036 10.0124C8.92136 10.2689 8.46563 10.4057 7.99965 10.4057C7.53367 10.4057 7.07794 10.2689 6.68893 10.0124C6.29993 9.75586 5.99476 9.39081 5.81125 8.96249C5.68761 8.67767 5.48353 8.43512 5.22405 8.26459C4.96456 8.09407 4.66095 8.00297 4.35045 8.00249H2.59765L3.84005 2.40249ZM13.6 13.6025H2.40005V9.60249H4.34485C4.65302 10.3159 5.16326 10.9235 5.81264 11.3503C6.46202 11.7772 7.22214 12.0046 7.99925 12.0046C8.77636 12.0046 9.53648 11.7772 10.1859 11.3503C10.8352 10.9235 11.3455 10.3159 11.6536 9.60249H13.6V13.6025Z"
          fill="currentColor"/>
    <path d="M5.60005 4.80249H10.4C10.6122 4.80249 10.8157 4.71821 10.9657 4.56818C11.1158 4.41815 11.2 4.21467 11.2 4.00249C11.2 3.79032 11.1158 3.58684 10.9657 3.43681C10.8157 3.28678 10.6122 3.20249 10.4 3.20249H5.60005C5.38788 3.20249 5.18439 3.28678 5.03436 3.43681C4.88433 3.58684 4.80005 3.79032 4.80005 4.00249C4.80005 4.21467 4.88433 4.41815 5.03436 4.56818C5.18439 4.71821 5.38788 4.80249 5.60005 4.80249Z"
          fill="currentColor"/>
    <path d="M4.80005 7.20249H11.2C11.4122 7.20249 11.6157 7.11821 11.7657 6.96818C11.9158 6.81815 12 6.61467 12 6.40249C12 6.19032 11.9158 5.98684 11.7657 5.83681C11.6157 5.68678 11.4122 5.60249 11.2 5.60249H4.80005C4.58788 5.60249 4.38439 5.68678 4.23436 5.83681C4.08433 5.98684 4.00005 6.19032 4.00005 6.40249C4.00005 6.61467 4.08433 6.81815 4.23436 6.96818C4.38439 7.11821 4.58788 7.20249 4.80005 7.20249Z"
          fill="currentColor"/>
</svg>
