<svg width="16" height="16" viewBox="0 0 16 16" fill="none" xmlns="http://www.w3.org/2000/svg">
    <path d="M14.4 0.669189H1.6C1.17565 0.669189 0.768687 0.850982 0.468629 1.17457C0.168571 1.49817 0 1.93705 0 2.39468V4.12017C0 4.5778 0.168571 5.01668 0.468629 5.34028C0.768687 5.66387 1.17565 5.84566 1.6 5.84566V13.6104C1.6 14.068 1.76857 14.5069 2.06863 14.8305C2.36869 15.1541 2.77565 15.3359 3.2 15.3359H12.8C13.2243 15.3359 13.6313 15.1541 13.9314 14.8305C14.2314 14.5069 14.4 14.068 14.4 13.6104V5.84566C14.8243 5.84566 15.2313 5.66387 15.5314 5.34028C15.8314 5.01668 16 4.5778 16 4.12017V2.39468C16 1.93705 15.8314 1.49817 15.5314 1.17457C15.2313 0.850982 14.8243 0.669189 14.4 0.669189ZM12.8 13.6104H3.2V5.84566H12.8V13.6104ZM1.6 4.12017V2.39468H14.4V4.12017H1.6Z"
          fill="currentColor"/>
    <path d="M6.4 9.29664H9.6C9.81217 9.29664 10.0157 9.20574 10.1657 9.04395C10.3157 8.88215 10.4 8.66271 10.4 8.4339V7.57115C10.4 7.34234 10.3157 7.12289 10.1657 6.9611C10.0157 6.7993 9.81217 6.70841 9.6 6.70841C9.38783 6.70841 9.18434 6.7993 9.03432 6.9611C8.88429 7.12289 8.8 7.34234 8.8 7.57115H7.2C7.2 7.34234 7.11571 7.12289 6.96569 6.9611C6.81566 6.7993 6.61217 6.70841 6.4 6.70841C6.18783 6.70841 5.98434 6.7993 5.83431 6.9611C5.68429 7.12289 5.6 7.34234 5.6 7.57115V8.4339C5.6 8.66271 5.68429 8.88215 5.83431 9.04395C5.98434 9.20574 6.18783 9.29664 6.4 9.29664Z"
          fill="currentColor"/>
</svg>
