<svg width="16" height="16" viewBox="0 0 16 16" fill="none" xmlns="http://www.w3.org/2000/svg">
    <path d="M8.8 16.0024H7.2C6.77565 16.0024 6.36869 15.8339 6.06863 15.5338C5.76857 15.2338 5.6 14.8268 5.6 14.4024V14.3312L5.2216 14.1712L5.1712 14.2216C4.87116 14.5216 4.46426 14.6901 4.04 14.6901C3.61574 14.6901 3.20884 14.5216 2.9088 14.2216L1.7776 13.0936C1.47765 12.7936 1.30914 12.3867 1.30914 11.9624C1.30914 11.5382 1.47765 11.1313 1.7776 10.8312L1.828 10.7808L1.6712 10.4024H1.6C1.17565 10.4024 0.768687 10.2339 0.468629 9.93381C0.168571 9.63375 0 9.22679 0 8.80244V7.20244C0 6.7781 0.168571 6.37113 0.468629 6.07107C0.768687 5.77101 1.17565 5.60244 1.6 5.60244H1.6712L1.8312 5.22404L1.7808 5.17364C1.48085 4.8736 1.31234 4.4667 1.31234 4.04244C1.31234 3.61818 1.48085 3.21129 1.7808 2.91124L2.9088 1.78004C3.20884 1.48009 3.61574 1.31158 4.04 1.31158C4.46426 1.31158 4.87116 1.48009 5.1712 1.78004L5.2224 1.83124L5.6 1.67364V1.60244C5.6 1.1781 5.76857 0.771129 6.06863 0.47107C6.36869 0.171012 6.77565 0.00244141 7.2 0.00244141H8.8C9.22435 0.00244141 9.63131 0.171012 9.93137 0.47107C10.2314 0.771129 10.4 1.1781 10.4 1.60244V1.67364L10.7776 1.83364L10.8288 1.78324C11.1288 1.48353 11.5355 1.31518 11.9596 1.31518C12.3837 1.31518 12.7904 1.48353 13.0904 1.78324L14.2224 2.91524C14.5224 3.21529 14.6909 3.62218 14.6909 4.04644C14.6909 4.4707 14.5224 4.8776 14.2224 5.17764L14.1712 5.22884L14.3312 5.60644H14.4C14.8243 5.60644 15.2313 5.77501 15.5314 6.07507C15.8314 6.37513 16 6.7821 16 7.20644V8.80644C16 9.23079 15.8314 9.63775 15.5314 9.93781C15.2313 10.2379 14.8243 10.4064 14.4 10.4064H14.3288L14.1688 10.784L14.2192 10.8352C14.5189 11.1353 14.6873 11.542 14.6873 11.966C14.6873 12.3901 14.5189 12.7968 14.2192 13.0968L13.0872 14.2288C12.7872 14.5288 12.3803 14.6973 11.956 14.6973C11.5317 14.6973 11.1248 14.5288 10.8248 14.2288L10.7744 14.1784L10.396 14.3384V14.4024C10.396 14.8261 10.228 15.2325 9.92879 15.5324C9.62959 15.8323 9.22365 16.0014 8.8 16.0024ZM5.0344 12.4312C5.13927 12.4313 5.2431 12.4519 5.34 12.492L6.7056 13.0576C6.8519 13.1181 6.97697 13.2206 7.06498 13.3522C7.15298 13.4838 7.19997 13.6385 7.2 13.7968V14.4024H8.8V13.7968C8.80003 13.6385 8.84702 13.4838 8.93503 13.3522C9.02303 13.2206 9.1481 13.1181 9.2944 13.0576L10.66 12.492C10.806 12.4316 10.9667 12.4157 11.1218 12.4464C11.2768 12.4772 11.4193 12.5532 11.5312 12.6648L11.9592 13.0928L13.0912 11.9624L12.6632 11.5336C12.5514 11.4218 12.4753 11.2794 12.4444 11.1244C12.4135 10.9693 12.4292 10.8086 12.4896 10.6624L13.0552 9.29684C13.1157 9.15054 13.2182 9.02547 13.3498 8.93747C13.4814 8.84946 13.6361 8.80247 13.7944 8.80244H14.4V7.20244H13.7944C13.6361 7.20242 13.4814 7.15542 13.3498 7.06742C13.2182 6.97941 13.1157 6.85434 13.0552 6.70804L12.4896 5.34244C12.4292 5.19632 12.4135 5.03559 12.4444 4.88053C12.4753 4.72548 12.5514 4.58305 12.6632 4.47124L13.0912 4.04244L11.96 2.91124L11.5312 3.33924C11.4194 3.45103 11.277 3.52718 11.1219 3.55807C10.9669 3.58897 10.8061 3.57323 10.66 3.51284L9.2944 2.94724C9.1481 2.88677 9.02303 2.78425 8.93503 2.65267C8.84702 2.52108 8.80003 2.36635 8.8 2.20804V1.60244H7.2V2.20804C7.19997 2.36635 7.15298 2.52108 7.06498 2.65267C6.97697 2.78425 6.8519 2.88677 6.7056 2.94724L5.34 3.51284C5.19388 3.57323 5.03315 3.58897 4.87809 3.55807C4.72303 3.52718 4.58061 3.45103 4.4688 3.33924L4.04 2.91124L2.9088 4.04244L3.3376 4.47124C3.44925 4.58314 3.52525 4.72561 3.55601 4.88066C3.58676 5.03571 3.57089 5.1964 3.5104 5.34244L2.9448 6.70804C2.88433 6.85434 2.78181 6.97941 2.65023 7.06742C2.51864 7.15542 2.3639 7.20242 2.2056 7.20244H1.6V8.80244H2.2056C2.3639 8.80247 2.51864 8.84946 2.65023 8.93747C2.78181 9.02547 2.88433 9.15054 2.9448 9.29684L3.5104 10.6624C3.57089 10.8085 3.58676 10.9692 3.55601 11.1242C3.52525 11.2793 3.44925 11.4217 3.3376 11.5336L2.9096 11.9616L4.04 13.0936L4.4688 12.6648C4.61893 12.5151 4.82236 12.4311 5.0344 12.4312Z"
          fill="currentColor"/>
    <path d="M8 11.2024C7.3671 11.2024 6.74841 11.0148 6.22218 10.6631C5.69594 10.3115 5.28579 9.81175 5.04359 9.22703C4.80138 8.64231 4.73801 7.99889 4.86149 7.37815C4.98496 6.75741 5.28973 6.18723 5.73726 5.7397C6.18479 5.29217 6.75497 4.9874 7.37571 4.86393C7.99645 4.74046 8.63986 4.80383 9.22459 5.04603C9.80931 5.28823 10.3091 5.69838 10.6607 6.22462C11.0123 6.75085 11.2 7.36954 11.2 8.00244C11.2 8.85113 10.8629 9.66507 10.2627 10.2652C9.66263 10.8653 8.84869 11.2024 8 11.2024ZM8 6.40244C7.68355 6.40244 7.37421 6.49628 7.11109 6.67209C6.84797 6.8479 6.64289 7.09779 6.52179 7.39015C6.40069 7.68251 6.36901 8.00422 6.43074 8.31459C6.49248 8.62496 6.64487 8.91005 6.86863 9.13381C7.09239 9.35758 7.37749 9.50996 7.68786 9.5717C7.99823 9.63343 8.31993 9.60175 8.61229 9.48065C8.90466 9.35955 9.15454 9.15447 9.33035 8.89135C9.50616 8.62823 9.6 8.31889 9.6 8.00244C9.6 7.57809 9.43143 7.17113 9.13137 6.87107C8.83131 6.57101 8.42435 6.40244 8 6.40244Z"
          fill="currentColor"/>
</svg>
