<svg width="16" height="16" viewBox="0 0 16 16" fill="none" xmlns="http://www.w3.org/2000/svg">
    <path d="M11.2 1.68665C10.8168 1.68974 10.4374 1.76592 10.08 1.9115C10.27 2.45643 10.3759 3.02986 10.3936 3.61002C10.6372 3.4556 10.9157 3.373 11.2 3.37086C11.473 3.36986 11.7416 3.44238 11.9805 3.58154C12.2193 3.72069 12.4203 3.92184 12.5644 4.16587C12.7085 4.40989 12.7909 4.68867 12.8038 4.97568C12.8167 5.2627 12.7596 5.5484 12.6379 5.80563C12.5163 6.06285 12.3341 6.28304 12.1088 6.44524C11.8835 6.60745 11.6225 6.70628 11.3507 6.73234C11.0788 6.75839 10.8052 6.7108 10.5557 6.5941C10.3063 6.4774 10.0894 6.29547 9.9256 6.0656C9.69569 6.5932 9.38758 7.07898 9.0128 7.50476C9.39295 7.88242 9.8552 8.1563 10.3591 8.30246C10.8631 8.44863 11.3934 8.46261 11.9036 8.34321C12.4139 8.2238 12.8886 7.97464 13.2862 7.61749C13.6839 7.26035 13.9923 6.80611 14.1847 6.29448C14.377 5.78286 14.4474 5.22942 14.3896 4.68257C14.3317 4.13571 14.1476 3.61209 13.8531 3.15748C13.5586 2.70287 13.1628 2.33111 12.7003 2.07471C12.2378 1.81831 11.7227 1.68507 11.2 1.68665Z"
          fill="currentColor"/>
    <path d="M12 9.2656H10.9888C11.3313 9.77965 11.593 10.3483 11.764 10.9498H12C12.6365 10.9498 13.247 11.216 13.6971 11.6898C14.1471 12.1635 14.4 12.8061 14.4 13.4761V14.3182H12V15.1603C11.9974 15.4479 11.9476 15.7328 11.8528 16.0024H15.2C15.4122 16.0024 15.6157 15.9137 15.7657 15.7558C15.9157 15.5979 16 15.3837 16 15.1603V13.4761C15.9987 12.3598 15.5769 11.2896 14.827 10.5003C14.0772 9.71097 13.0605 9.26694 12 9.2656Z"
          fill="currentColor"/>
    <path d="M5.2 7.58139C4.48799 7.58139 3.79196 7.35914 3.19995 6.94275C2.60793 6.52636 2.14651 5.93452 1.87403 5.24208C1.60156 4.54965 1.53027 3.78771 1.66917 3.05263C1.80808 2.31754 2.15095 1.64232 2.65442 1.11235C3.15788 0.582387 3.79934 0.221474 4.49767 0.0752568C5.19601 -0.0709609 5.91985 0.00408331 6.57766 0.2909C7.23547 0.577716 7.79772 1.06342 8.19329 1.6866C8.58886 2.30977 8.8 3.04243 8.8 3.79192C8.79894 4.79661 8.41932 5.75983 7.74442 6.47025C7.06951 7.18067 6.15445 7.58027 5.2 7.58139ZM5.2 1.68665C4.80444 1.68665 4.41776 1.81012 4.08886 2.04145C3.75996 2.27278 3.50362 2.60158 3.35224 2.98627C3.20087 3.37095 3.16126 3.79425 3.23843 4.20263C3.3156 4.61101 3.50608 4.98614 3.78579 5.28056C4.06549 5.57499 4.42186 5.7755 4.80982 5.85673C5.19778 5.93796 5.59992 5.89627 5.96537 5.73693C6.33082 5.57758 6.64318 5.30775 6.86294 4.96154C7.0827 4.61533 7.2 4.2083 7.2 3.79192C7.2 3.23357 6.98929 2.69808 6.61421 2.30327C6.23914 1.90846 5.73043 1.68665 5.2 1.68665Z"
          fill="currentColor"/>
    <path d="M9.6 16.0024H0.8C0.587827 16.0024 0.384344 15.9137 0.234315 15.7558C0.0842854 15.5979 0 15.3837 0 15.1603V12.634C0.00127029 11.5177 0.423106 10.4475 1.17298 9.65821C1.92285 8.86887 2.93952 8.42483 4 8.42349H6.4C7.46048 8.42483 8.47715 8.86887 9.22702 9.65821C9.97689 10.4475 10.3987 11.5177 10.4 12.634V15.1603C10.4 15.3837 10.3157 15.5979 10.1657 15.7558C10.0157 15.9137 9.81217 16.0024 9.6 16.0024ZM1.6 14.3182H8.8V12.634C8.8 11.964 8.54714 11.3214 8.09706 10.8476C7.64697 10.3739 7.03652 10.1077 6.4 10.1077H4C3.36348 10.1077 2.75303 10.3739 2.30294 10.8476C1.85286 11.3214 1.6 11.964 1.6 12.634V14.3182Z"
          fill="currentColor"/>
</svg>
