<svg width="16" height="16" viewBox="0 0 16 16" fill="none" xmlns="http://www.w3.org/2000/svg">
    <g clip-path="url(#clip0_2190_1149)">
        <path d="M13.8333 16.0024H3.83325C3.17021 16.0024 2.53433 15.7496 2.06549 15.2995C1.59664 14.8494 1.33325 14.239 1.33325 13.6024V1.60244C1.33325 1.1781 1.50885 0.771129 1.82141 0.47107C2.13397 0.171012 2.55789 0.00244141 2.99992 0.00244141H12.9999C13.4419 0.00244141 13.8659 0.171012 14.1784 0.47107C14.491 0.771129 14.6666 1.1781 14.6666 1.60244V11.2024C14.6666 11.6268 14.491 12.0338 14.1784 12.3338C13.8659 12.6339 13.4419 12.8024 12.9999 12.8024H3.83325C3.61224 12.8024 3.40028 12.8867 3.244 13.0368C3.08772 13.1868 2.99992 13.3903 2.99992 13.6024C2.99992 13.8146 3.08772 14.0181 3.244 14.1681C3.40028 14.3182 3.61224 14.4024 3.83325 14.4024H13.8333C14.0543 14.4024 14.2662 14.4867 14.4225 14.6368C14.5788 14.7868 14.6666 14.9903 14.6666 15.2024C14.6666 15.4146 14.5788 15.6181 14.4225 15.7681C14.2662 15.9182 14.0543 16.0024 13.8333 16.0024ZM2.99992 1.60244V11.3392C3.26759 11.2486 3.5494 11.2023 3.83325 11.2024H12.9999V1.60244H2.99992Z"
              fill="#374252"/>
        <path d="M5.49992 12.8024C5.2789 12.8024 5.06694 12.7182 4.91066 12.5681C4.75438 12.4181 4.66659 12.2146 4.66659 12.0024V0.802441C4.66659 0.590268 4.75438 0.386785 4.91066 0.236756C5.06694 0.0867268 5.2789 0.00244141 5.49992 0.00244141C5.72093 0.00244141 5.93289 0.0867268 6.08917 0.236756C6.24545 0.386785 6.33325 0.590268 6.33325 0.802441V12.0024C6.33325 12.2146 6.24545 12.4181 6.08917 12.5681C5.93289 12.7182 5.72093 12.8024 5.49992 12.8024Z"
              fill="#374252"/>
        <path d="M12.1666 16.0024C11.9456 16.0024 11.7336 15.9182 11.5773 15.7681C11.421 15.6181 11.3333 15.4146 11.3333 15.2024V12.0024C11.3333 11.7903 11.421 11.5868 11.5773 11.4368C11.7336 11.2867 11.9456 11.2024 12.1666 11.2024C12.3876 11.2024 12.5996 11.2867 12.7558 11.4368C12.9121 11.5868 12.9999 11.7903 12.9999 12.0024V15.2024C12.9999 15.4146 12.9121 15.6181 12.7558 15.7681C12.5996 15.9182 12.3876 16.0024 12.1666 16.0024Z"
              fill="#374252"/>
    </g>
    <defs>
        <clipPath id="clip0_2190_1149">
            <rect width="16" height="16" fill="white" transform="translate(0 0.00244141)"/>
        </clipPath>
    </defs>
</svg>
