<svg width="16" height="16" viewBox="0 0 16 16" fill="none" xmlns="http://www.w3.org/2000/svg">
    <path d="M13.0549 0H9.52325C8.85575 0 8.22742 0.2496 7.75575 0.7032L5.39909 2.9656C4.92658 3.4184 4.66659 4.0216 4.66659 4.6632V11.2C4.66659 12.0824 5.38909 12.8 6.27825 12.8H13.0558C13.9441 12.8 14.6666 12.0824 14.6666 11.2V1.6C14.6666 0.7176 13.9441 0 13.0549 0ZM8.83325 1.9312V4H6.67825L8.83325 1.9312ZM6.33325 11.2V5.6H8.83325C9.75242 5.6 10.4999 4.8824 10.4999 4V1.5944L12.9949 1.5792C12.9949 1.5792 12.9999 1.5856 12.9999 1.6L13.0549 11.2H6.33325Z"
          fill="currentColor"/>
    <path d="M9.66658 13.6V14.4H2.99992L2.99909 4.8H3.83325V3.2H2.99992C2.08075 3.2 1.33325 3.9176 1.33325 4.8V14.4C1.33325 15.2824 2.05575 16 2.94492 16H9.69492C10.1499 16 10.5758 15.8272 10.8924 15.5128C11.1933 15.2144 11.3174 14.828 11.3291 14.4L11.3333 13.6H9.66658Z"
          fill="currentColor"/>
</svg>
