<svg width="127" height="24" viewBox="0 0 127 24" fill="none" xmlns="http://www.w3.org/2000/svg">
<path d="M28.014 20.1614V9.19143C28.014 8.51708 27.8609 8.11692 27.3693 8.11692C27.1247 8.11692 26.7839 8.20831 25.2178 8.97653C23.6196 9.74475 23.0663 10.0832 23.0663 10.5747C23.0663 11.7727 25.2474 10.7279 25.2474 12.6324V20.1614C25.2474 22.6513 23.3108 21.7596 23.3108 22.9255C23.3108 23.2021 23.5257 23.5405 24.0469 23.5405C24.6916 23.5405 25.5537 23.4467 26.6282 23.4467C27.7028 23.4467 28.6562 23.5405 29.3331 23.5405C29.795 23.5405 30.0099 23.2021 30.0099 22.9255C30.0099 21.7571 28.0115 22.6488 28.0115 20.1614H28.014Z" fill="#031735"/>
<path d="M25.2153 4.43886C26.9098 4.43886 28.2981 3.01606 28.2981 1.72911C28.2981 0.64471 27.4187 0 26.401 0C24.7065 0 23.4195 1.42281 23.4195 2.70976C23.4195 3.82874 24.3014 4.43886 25.2178 4.43886H25.2153Z" fill="#031735"/>
<path d="M43.0548 20.191C42.7781 20.191 42.5014 20.4059 42.3187 20.5912C41.7036 21.1124 40.9971 21.851 39.7373 21.851C38.4776 21.851 37.5858 21.1741 37.5858 18.9016V7.40552H42.7163C43.0251 7.40552 43.2079 7.25237 43.2697 6.91396C43.3018 6.72869 43.3635 6.4224 43.3635 6.20749C43.3635 5.93084 43.1807 5.77769 42.8423 5.77769H37.5883V0.797859C37.5883 0.244545 37.3734 0 37.035 0C36.5731 0 36.3903 0.368053 36.1136 1.16838C35.4072 3.96459 34.5772 5.07122 32.7345 5.83944C32.2429 6.05434 31.9341 6.30136 31.9341 6.69905C31.9341 7.16097 32.2725 7.40552 32.8234 7.40552H34.8217V15.767C34.8217 17.8864 34.76 20.2528 34.76 20.8975C34.76 22.4636 36.4199 23.7876 38.7863 23.7876C40.4463 23.7876 41.9506 23.2343 43.0572 22.0659C43.4574 21.6361 43.6723 21.2359 43.6723 20.8678C43.6723 20.4998 43.4277 20.191 43.0572 20.191H43.0548Z" fill="#031735"/>
<path d="M59.8716 19.5463C59.627 19.5463 59.38 19.6995 59.0737 20.0082C58.0906 21.1124 56.5541 21.9127 54.7386 21.9127C52.1894 21.9127 50.191 20.1293 49.3611 17.6097L59.2268 14.6604C59.6863 14.5072 59.8716 14.3219 59.8716 13.6772C59.8716 10.6636 57.3545 7.77851 53.5727 7.77851C49.5488 7.77851 46.014 11.128 46.014 15.9522C46.014 21.0827 49.5488 24.0025 53.7258 24.0025C56.3985 24.0025 59.0737 22.6192 60.21 20.9914C60.3928 20.6851 60.4866 20.438 60.4866 20.2552C60.4866 19.8551 60.21 19.5488 59.8716 19.5488V19.5463ZM48.9016 14.8135C48.9016 11.6492 50.7443 9.55949 53.1725 9.55949C55.3536 9.55949 56.7987 11.464 56.7987 13.0004C56.7987 13.5216 56.6455 13.6772 56.0897 13.8304L48.993 16.0436C48.9312 15.6435 48.9016 15.2433 48.9016 14.816V14.8135Z" fill="#031735"/>
<path d="M70.7328 21.7472C67.618 21.7472 65.2911 19.4203 65.2911 15.93C65.2911 12.4397 67.6871 9.94237 70.8687 9.94237C72.373 9.94237 74.0848 10.5253 75.3149 11.585L74.9395 9.12228C73.9119 8.43804 72.578 7.92425 70.8687 7.92425C66.4199 7.92425 63.1346 11.2787 63.1346 15.8633C63.1346 20.1737 66.1457 23.7678 70.7995 23.7678C72.6818 23.7678 74.0502 23.2194 75.2828 22.261L75.7275 19.5933C74.4627 21.0309 72.5459 21.7497 70.7328 21.7497V21.7472Z" fill="#031735"/>
<path d="M85.6945 7.92178C81.2112 7.92178 77.9951 11.3775 77.9951 15.8608C77.9951 20.3442 81.2112 23.7653 85.6945 23.7653C90.1779 23.7653 93.4286 20.3096 93.4286 15.8608C93.4286 11.4121 90.247 7.92178 85.6945 7.92178ZM85.6945 21.7448C82.6488 21.7448 80.1515 19.4179 80.1515 15.8584C80.1515 12.2989 82.6488 9.93742 85.6945 9.93742C88.7402 9.93742 91.2697 12.2297 91.2697 15.8584C91.2697 19.487 88.7723 21.7448 85.6945 21.7448Z" fill="#031735"/>
<path d="M107.938 0V9.63359C107.014 8.77892 105.443 7.92178 103.284 7.92178C99.0432 7.92178 95.8246 11.3775 95.8246 15.8608C95.8246 20.3442 99.0407 23.7653 103.319 23.7653C104.722 23.7653 106.57 23.1503 107.973 21.8164V23.7653L110.129 23.1503L110.095 0L107.938 0ZM107.973 19.5908C106.982 20.7542 105.443 21.7472 103.457 21.7472C100.755 21.7472 98.0156 19.5587 98.0156 15.8608C98.0156 12.163 100.755 9.93989 103.457 9.93989C105.475 9.93989 107.049 10.8637 107.973 11.9926V19.5908Z" fill="#031735"/>
<path d="M126.771 14.5937C126.771 10.9675 124.1 7.92178 120.133 7.92178C116.166 7.92178 112.945 11.3775 112.945 15.7571C112.945 20.5467 116.3 23.7653 120.884 23.7653C122.767 23.7653 124.444 23.217 125.469 22.5327L126.222 19.7266C124.854 20.8209 123.075 21.7448 120.953 21.7448C118.009 21.7448 115.102 19.8971 115.033 15.9621H126.632C126.734 15.4138 126.768 15.0729 126.768 14.5937H126.771ZM115.205 14.149C115.754 11.6517 117.599 9.94236 120.165 9.94236C122.732 9.94236 124.649 11.9259 124.649 14.149H115.205Z" fill="#031735"/>
<path d="M15.1816 10.7872C17.2491 10.0684 18.536 8.51216 18.7707 6.55827C18.7954 6.3409 18.8102 6.12105 18.8077 5.8938C18.7756 1.74394 12.7213 6.46193 10.6562 5.23674C9.62865 4.62908 11.6048 1.72912 10.8711 0.73118C10.3771 0.0617691 9.35694 -0.0148057 8.58625 0.00989587C6.69905 0.0345974 5.23672 0.101292 3.86085 0.101292C2.66529 0.101292 1.46727 1.52588e-05 0.931247 1.52588e-05C0.266776 1.52588e-05 0 0.298904 0 0.699068C0 1.96379 2.23055 1.16593 2.23055 3.39647V20.4084C2.23055 22.639 0 21.8065 0 23.0712C0 23.4714 0.266776 23.7703 0.931247 23.7703C1.4648 23.7703 2.66282 23.6715 3.86085 23.6715C5.05887 23.6715 7.68958 23.7703 10.9181 23.7703C17.4096 23.7703 20.7048 20.9741 20.7048 17.012C20.7048 13.5488 18.2421 11.5183 15.1791 10.7872H15.1816ZM5.56278 9.33225C5.56278 7.50681 5.56278 5.68384 5.56278 3.85839C5.56278 3.30014 5.59489 2.66531 6.02223 2.30467C6.22478 2.13423 6.48909 2.05271 6.74846 1.9959C7.54632 1.81558 8.09222 1.71677 8.87279 1.96379C9.86085 2.2775 9.38905 3.41624 9.10992 4.16716C8.21573 5.9679 9.24578 7.04983 11.0935 7.11158C12.1062 7.17828 12.9732 6.48664 13.9687 6.43229C15.6583 6.41994 14.8876 8.11446 14.1515 8.8728C13.571 9.42612 12.7979 9.74477 12.0099 9.90039C11.2244 10.056 10.4142 10.0634 9.61136 10.0684C8.5739 10.0758 7.53396 10.0832 6.4965 10.0906C6.17538 10.0931 5.79004 10.0609 5.63442 9.77935C5.56278 9.65337 5.56031 9.50269 5.55784 9.35942V9.33719L5.56278 9.33225ZM10.3549 21.972H8.65541C6.15809 21.972 5.56031 21.5719 5.56031 20.0749V12.6497C5.56031 12.084 5.72828 11.8518 6.49156 11.8518H10.1202C14.8481 11.8518 17.0465 13.9811 17.0465 17.1108C17.0465 20.2404 14.4825 21.972 10.3549 21.972Z" fill="#031735"/>
</svg>
