<svg width="48" height="48" viewBox="0 0 48 48" fill="none" xmlns="http://www.w3.org/2000/svg">
    <path d="M0 24C0 10.7452 10.7452 0 24 0C37.2548 0 48 10.7452 48 24C48 37.2548 37.2548 48 24 48C10.7452 48 0 37.2548 0 24Z" fill="#FDE8E8"/>
    <path d="M26.1778 23.9999L34.3298 15.8479C34.4769 15.7058 34.5942 15.5359 34.675 15.348C34.7557 15.1601 34.7982 14.958 34.7999 14.7535C34.8017 14.549 34.7627 14.3462 34.6853 14.1569C34.6079 13.9676 34.4935 13.7957 34.3489 13.6511C34.2043 13.5064 34.0323 13.3921 33.843 13.3146C33.6538 13.2372 33.451 13.1982 33.2465 13.2C33.042 13.2018 32.8399 13.2443 32.652 13.325C32.464 13.4057 32.2941 13.523 32.152 13.6701L24 21.8222L15.848 13.6701C15.5575 13.3896 15.1684 13.2344 14.7646 13.2379C14.3608 13.2414 13.9745 13.4033 13.6889 13.6889C13.4034 13.9745 13.2414 14.3607 13.2379 14.7646C13.2344 15.1684 13.3896 15.5574 13.6702 15.8479L21.8222 23.9999L13.6702 32.152C13.5231 32.2941 13.4058 32.464 13.325 32.6519C13.2443 32.8398 13.2018 33.0419 13.2001 33.2464C13.1983 33.4509 13.2372 33.6537 13.3147 33.843C13.3921 34.0323 13.5065 34.2042 13.6511 34.3488C13.7957 34.4935 13.9677 34.6078 14.1569 34.6853C14.3462 34.7627 14.549 34.8017 14.7535 34.7999C14.958 34.7981 15.1601 34.7556 15.348 34.6749C15.5359 34.5942 15.7059 34.4769 15.848 34.3298L24 26.1777L32.152 34.3298C32.4425 34.6103 32.8315 34.7655 33.2354 34.762C33.6392 34.7585 34.0255 34.5966 34.311 34.311C34.5966 34.0254 34.7586 33.6391 34.7621 33.2353C34.7656 32.8315 34.6104 32.4425 34.3298 32.152L26.1778 23.9999Z"
          fill="#E02424"/>
</svg>
