<svg width="15" height="14" viewBox="0 0 15 14" fill="none" xmlns="http://www.w3.org/2000/svg">
    <path fill-rule="evenodd" clip-rule="evenodd"
          d="M14.22 7.15911C14.22 6.66275 14.1755 6.18548 14.0927 5.72729H7.5V8.43502H11.2673C11.105 9.31002 10.6118 10.0514 9.87045 10.5477V12.3041H12.1327C13.4564 11.0855 14.22 9.29093 14.22 7.15911Z"
          fill="#4285F4"/>
    <path fill-rule="evenodd" clip-rule="evenodd"
          d="M7.50008 14C9.39008 14 10.9746 13.3732 12.1328 12.3041L9.87054 10.5477C9.24372 10.9677 8.4419 11.2159 7.50008 11.2159C5.6769 11.2159 4.13372 9.98456 3.58327 8.33002H1.24463V10.1437C2.39645 12.4314 4.76372 14 7.50008 14Z"
          fill="#34A853"/>
    <path fill-rule="evenodd" clip-rule="evenodd"
          d="M3.58318 8.33002C3.44318 7.91002 3.36364 7.46138 3.36364 7.00002C3.36364 6.53866 3.44318 6.09002 3.58318 5.67002V3.85638H1.24455C0.770455 4.80138 0.5 5.87048 0.5 7.00002C0.5 8.12957 0.770455 9.19866 1.24455 10.1437L3.58318 8.33002Z"
          fill="#FBBC05"/>
    <path fill-rule="evenodd" clip-rule="evenodd"
          d="M7.50008 2.78409C8.52781 2.78409 9.45054 3.13727 10.176 3.83091L12.1837 1.82318C10.9714 0.693636 9.3869 0 7.50008 0C4.76372 0 2.39645 1.56864 1.24463 3.85636L3.58327 5.67C4.13372 4.01545 5.6769 2.78409 7.50008 2.78409Z"
          fill="#EA4335"/>
</svg>
