<svg width="48" height="48" viewBox="0 0 48 48" fill="none" xmlns="http://www.w3.org/2000/svg">
    <path d="M0 24C0 10.7452 10.7452 0 24 0C37.2548 0 48 10.7452 48 24C48 37.2548 37.2548 48 24 48C10.7452 48 0 37.2548 0 24Z" fill="#DEF7EC"/>
    <path d="M21.1554 32.3334C20.829 32.335 20.515 32.1816 20.2807 31.9062L14.3774 24.9625C14.2598 24.8233 14.1659 24.6573 14.1011 24.4741C14.0364 24.2909 14.0021 24.094 14.0001 23.8946C13.9961 23.4921 14.1242 23.1041 14.3562 22.8161C14.5882 22.528 14.9051 22.3635 15.2372 22.3587C15.5692 22.3539 15.8893 22.5091 16.1269 22.7903L21.1604 28.7086L31.8722 16.0981C32.1102 15.8169 32.4305 15.6618 32.7628 15.6669C33.0951 15.672 33.4122 15.8369 33.6442 16.1254C33.8762 16.4138 34.0041 16.8022 33.9999 17.205C33.9957 17.6078 33.8596 17.9921 33.6217 18.2733L22.0301 31.9062C21.7958 32.1816 21.4818 32.335 21.1554 32.3334Z"
          fill="#0E9F6E"/>
</svg>
